<svg width="40" height="56" viewBox="0 0 40 56" fill="none" xmlns="http://www.w3.org/2000/svg">
<path d="M20 29.125C20.6213 29.125 21.125 28.6213 21.125 28C21.125 27.3787 20.6213 26.875 20 26.875C19.3787 26.875 18.875 27.3787 18.875 28C18.875 28.6213 19.3787 29.125 20 29.125Z" fill="#616C76"/>
<path d="M20 23.125C20.6213 23.125 21.125 22.6213 21.125 22C21.125 21.3787 20.6213 20.875 20 20.875C19.3787 20.875 18.875 21.3787 18.875 22C18.875 22.6213 19.3787 23.125 20 23.125Z" fill="#616C76"/>
<path d="M20 35.125C20.6213 35.125 21.125 34.6213 21.125 34C21.125 33.3787 20.6213 32.875 20 32.875C19.3787 32.875 18.875 33.3787 18.875 34C18.875 34.6213 19.3787 35.125 20 35.125Z" fill="#616C76"/>
</svg>
